<svg width="44" height="46" viewBox="0 0 44 46" fill="none" xmlns="http://www.w3.org/2000/svg">
<path fill-rule="evenodd" clip-rule="evenodd" d="M0.575607 36.0281C1.42279 30.7103 6.17046 26.2244 12.7545 24.0255C15.1619 26.4601 18.377 27.9864 22.0468 27.9864C25.6928 27.9864 28.8901 26.4798 31.2923 24.0727C37.8419 26.3011 42.5452 30.8006 43.3458 36.1214C38.2098 42.1651 30.5528 45.9997 22.0001 45.9997C13.4036 45.9997 5.71187 42.1256 0.575607 36.0281ZM32.9201 12.5864C32.9201 17.0398 30.8659 20.9455 27.7801 23.1359C26.1156 24.3173 24.151 24.9997 22.0468 24.9997C19.9825 24.9997 18.0526 24.343 16.4086 23.2026C13.27 21.0254 11.1735 17.0854 11.1735 12.5864C11.1735 5.73066 16.0416 0.173019 22.0468 0.173019C28.052 0.173019 32.9201 5.73066 32.9201 12.5864Z" fill="#FBFEFF"/>
</svg>
